<svg xmlns="http://www.w3.org/2000/svg" width="600" height="400" viewBox="0 0 600 400">
  <defs>
    <linearGradient id="bg-gradient" x1="0%" y1="0%" x2="100%" y2="100%">
      <stop offset="0%" style="stop-color:#e6f7ff;stop-opacity:1" />
      <stop offset="100%" style="stop-color:#ffffff;stop-opacity:1" />
    </linearGradient>
  </defs>
  
  <rect width="100%" height="100%" fill="url(#bg-gradient)"/>
  
  <g transform="translate(300,200) scale(0.8)">
    <path d="M-50,-50 L50,-50 L50,50 L-50,50 Z" fill="#03A9F4" opacity="0.2"/>
    <path d="M-40,-40 L60,-40 L60,60 L-40,60 Z" fill="#0288D1" opacity="0.4"/>
    <path d="M-30,-30 L70,-30 L70,70 L-30,70 Z" fill="#01579B" opacity="0.6"/>
    
    <circle cx="20" cy="20" r="60" fill="none" stroke="#FFC107" stroke-width="10"/>
    <path d="M20,-25 L20,20 L-25,20" fill="none" stroke="#FFC107" stroke-width="10" stroke-linecap="round"/>
  </g>
  
  <g transform="translate(450,100) rotate(15)">
    <rect x="-40" y="-25" width="80" height="50" rx="5" ry="5" fill="#E1F5FE"/>
    <text x="0" y="0" font-family="Arial, sans-serif" font-size="12" fill="#01579B" text-anchor="middle" dominant-baseline="middle">API Key</text>
  </g>
  
  <g transform="translate(150,300) rotate(-10)">
    <rect x="-40" y="-25" width="80" height="50" rx="5" ry="5" fill="#E1F5FE"/>
    <text x="0" y="0" font-family="Arial, sans-serif" font-size="12" fill="#01579B" text-anchor="middle" dominant-baseline="middle">Secure</text>
  </g>
</svg>
